#!OML:ASF E:/inclinewalkrobotboard/Project1/Captureday1/Session1/subject1.ASF
:FULLY-SPECIFIED
:DEGREES
388
root 0 0 0 2.376031225086391 -4.156485739416868 2.465255506876758
lowerback 11.91898579816374 1.1039110362948614 -0.3644193310483166
upperback -4.195590216327936 1.3805594478639545 -0.8325702857277245
thorax -11.161493574614138 0.6394459639770373 -0.9658883688597246
lowerneck -6.869568467929215 1.3032421590269945 4.297747891812743
upperneck 19.56539472420787 2.725662567489503 -8.163054768193415
head 7.2747440895335025 0.925523634093815 -3.1733378620254715
rclavicle -4.643523262835477E-16 -1.3129070216938136E-15
rhumerus 16.244916397078626 11.752490761644824 -50.44509200248826
rradius 67.94517742367044
rwrist 24.82203720108857
rhand -32.89823788716148 -49.11639218176304
rfingers 7.125019999999963
rthumb -6.160789361329551 -79.23729456421827
lclavicle 9.602829921920618E-16 1.7137493778399847E-16
lhumerus 17.149534056260762 -12.527741594121906 49.124599630315316
lradius 66.45249784458346
lwrist -18.816998291347907
lhand -43.90235819894367 -61.200089972677986
lfingers 7.125019999999955
lthumb -16.74224101360129 -31.743760733204592
rfemur -28.43846214842327 -0.9896824817442029 15.740880549318344
rtibia 53.253177621874954
rfoot -14.098807019894279 -13.599601825411854
rtoes -15.52619814715586
lfemur -17.63400644122884 1.9642696193592255 -14.388838488204943
ltibia 51.248131128143946
lfoot -15.058360682763562 -4.01872269407749
ltoes -20.79742603674845
389
root 0 0 0 2.0307601784747935 -4.020277109291997 2.679781990029655
lowerback 12.067981424432507 1.0127140470566638 -0.5744809514066532
upperback -4.1484138702805575 1.2352851987011992 -0.8274073554082914
thorax -11.219818820276055 0.5754182019417732 -0.81975569428548
lowerneck -6.908286975009545 1.3481658987788572 4.309731155371818
upperneck 19.603968150315286 2.794269284775214 -8.221929692041376
head 7.293684808155874 0.9512991665956169 -3.1898958704189804
rclavicle -4.593082963682956E-16 -1.6931998904082351E-15
rhumerus 15.963971769298707 11.337865063426028 -50.14919678293454
rradius 67.71949536930862
rwrist 25.145384070621994
rhand -32.90380580761605 -49.21384296016515
rfingers 7.125019999999963
rthumb -6.165749081144371 -79.35426890999076
lclavicle 7.325273443344006E-16 -1.5773633850768253E-16
lhumerus 17.24078768905199 -12.499594758761843 49.03799065484056
lradius 66.50287419396865
lwrist -18.895031444318214
lhand -43.95159488900757 -61.45175192988958
lfingers 7.125019999999956
lthumb -16.79074129530015 -31.999755950046595
rfemur -31.50900507012239 -2.003740397845485 14.808744719714097
rtibia 59.54118539690793
rfoot -10.637200848770004 -12.986383677400049
rtoes -11.888941745384859
lfemur -17.42930503323283 3.4731443852857438 -14.629707423028748
ltibia 61.576720530367254
lfoot -10.653025143402377 -7.725108621220763
ltoes -18.61502280261843
390
root 0 0 0 1.73509279195004 -3.859674702116844 2.8503216303113104
lowerback 12.211583681127806 0.9067914238014936 -0.7649574416926274
upperback -4.0897388342851135 1.0736918277950154 -0.8002412519905925
thorax -11.2611714108628 0.5029034622097599 -0.6596299316054366
lowerneck -6.998892445332115 1.3883068481422722 4.310658363601579
upperneck 19.596269922817342 2.855973556698858 -8.262520618652914
head 7.304983180179808 0.9748579105294609 -3.199220677143467
rclavicle -6.198800204202901E-16 -2.0133985039509126E-15
rhumerus 15.857948032689402 11.183194910051503 -50.04012898101785
rradius 67.63619185425854
rwrist 25.264118505822154
rhand -32.90635007164667 -49.25096193297597
rfingers 7.125019999999964
rthumb -6.167918241825037 -79.39431126213063
lclavicle 4.1134493903782536E-16 -3.68674782673704E-16
lhumerus 17.368513624388072 -12.629316912672198 49.02945431417564
lradius 66.6305337499675
lwrist -18.861460653044926
lhand -43.98750124684215 -61.505965948639215
lfingers 7.125019999999956
lthumb -16.826163353260796 -32.057519899136
rfemur -33.70589345169856 -2.4594348073562227 14.611693107771924
rtibia 62.129558922236995
rfoot -9.936354643741387 -12.978501830163536
rtoes -9.269182486925448
lfemur -18.384909485621915 4.665528366283237 -15.104954948058717
ltibia 67.58572934498348
lfoot -8.258617561887691 -9.151720065879509
ltoes -15.080250140716887
391
root 0 0 0 1.6111545730687533 -3.7522329996886805 2.936644575652863
lowerback 12.302601145824294 0.8288326612372874 -0.8798182275071532
upperback -4.048299828691125 0.9586481119207022 -0.7698359478163302
thorax -11.280807921100592 0.4503294576370771 -0.5471223994956458
lowerneck -7.082452799711207 1.4149993647133792 4.304798056574911
upperneck 19.544155906875453 2.897766463616149 -8.281087475042582
head 7.300071921631046 0.9914923279003928 -3.201095869610567
rclavicle -8.177852166813526E-16 -2.169123248479717E-15
rhumerus 16.001230276675237 11.382820282761442 -50.16184790015659
rradius 67.75319013395787
rwrist 25.126322863978213
rhand -32.9110672646985 -49.23911893549854
rfingers 7.125019999999964
rthumb -6.173371627559511 -79.36802074581016
lclavicle 2.1833757876734533E-16 -4.316629697675469E-16
lhumerus 17.506998410453782 -12.882767140348783 49.100157526493376
lradius 66.80413512292174
lwrist -18.726340923459134
lhand -44.00448409526502 -61.35712531897865
lfingers 7.125019999999957
lthumb -16.842849326588695 -31.911705122383086
rfemur -35.32243283288341 -2.516150926896106 14.594278393329581
rtibia 61.646928174321495
rfoot -11.321203271344988 -13.68345454492452
rtoes -8.343141992507846
lfemur -20.124293569391106 5.253749723629152 -15.427251496873568
ltibia 69.3310347187253
lfoot -8.942131197368141 -8.344822891202774
ltoes -12.491743183135402
